<mxfile host="app.diagrams.net" modified="2024-02-14T10:42:35.112Z" agent="Mozilla/5.0 (Windows NT 10.0; Win64; x64) AppleWebKit/537.36 (KHTML, like Gecko) Chrome/121.0.0.0 Safari/537.36" version="22.1.21" etag="4ekZAH5AyM3tLnCArWPr" type="github">
  <diagram name="Page-1" id="Gm4emZmQn4sRQIeZi6Np">
    <mxGraphModel>
      <root>
        <mxCell id="0" />
        <mxCell id="1" parent="0" />
      </root>
    </mxGraphModel>
  </diagram>
</mxfile>
